<svg xmlns="http://www.w3.org/2000/svg" viewBox="0 0 600 760" role="img" aria-label="Demo painting: Paper Moon"><title>Demo painting: Paper Moon</title><path fill="#aaa2b8" d="M0 0h600v760H0z"/><circle cx="265" cy="244" r="143" fill="#e8d8b9"/><path fill="#ad7979" d="M0 479q156-224 343-34t298-94v409H0z"/><path fill="#cf9e87" d="M0 572q112-103 224-53t205-24 207 60v205H0z"/><path fill="#766c81" d="M0 649q178-103 358 33t277-87v165H0z"/><path d="M0 641q203-151 349-101t285-16" stroke="#e1b9a0" stroke-width="13" fill="none"/><path d="M48 760L123 472M108 537L55 505M102 566l48-70M80 654l89-99" stroke="#535065" stroke-width="9" fill="none"/><path d="M60 513l-31-38 21-17 27 44zM147 509l8-63 23 11-16 50zM167 559l21-43 14 25-24 29z" fill="#5c5b6b"/><path d="M420 413l11 -4" stroke="#c49d95" stroke-width="4" opacity=".12"/><path d="M55 749l38 -1" stroke="#c49d95" stroke-width="1" opacity=".12"/><path d="M202 40l33 3" stroke="#c6b6bd" stroke-width="1" opacity=".12"/><path d="M144 436l30 -3" stroke="#c49d95" stroke-width="4" opacity=".12"/><path d="M504 273l16 4" stroke="#c6b6bd" stroke-width="3" opacity=".12"/><path d="M353 494l16 4" stroke="#c49d95" stroke-width="4" opacity=".12"/><path d="M134 452l23 4" stroke="#c49d95" stroke-width="3" opacity=".12"/><path d="M223 112l19 -2" stroke="#c49d95" stroke-width="3" opacity=".12"/><path d="M273 758l48 1" stroke="#c6b6bd" stroke-width="1" opacity=".12"/><path d="M236 426l46 -1" stroke="#c6b6bd" stroke-width="1" opacity=".12"/><path d="M152 256l31 1" stroke="#c6b6bd" stroke-width="1" opacity=".12"/><path d="M181 574l19 -4" stroke="#c49d95" stroke-width="2" opacity=".12"/><path d="M122 368l36 -7" stroke="#e2cbb0" stroke-width="2" opacity=".12"/><path d="M146 377l40 -5" stroke="#c49d95" stroke-width="3" opacity=".12"/><path d="M293 662l11 -6" stroke="#c49d95" stroke-width="1" opacity=".12"/><path d="M341 622l39 1" stroke="#c6b6bd" stroke-width="1" opacity=".12"/><path d="M557 513l39 1" stroke="#c6b6bd" stroke-width="3" opacity=".12"/><path d="M326 629l19 2" stroke="#c49d95" stroke-width="3" opacity=".12"/><path d="M285 234l19 2" stroke="#e2cbb0" stroke-width="2" opacity=".12"/><path d="M581 750l46 0" stroke="#e2cbb0" stroke-width="3" opacity=".12"/><path d="M549 722l25 4" stroke="#c49d95" stroke-width="1" opacity=".12"/><path d="M437 535l9 2" stroke="#e2cbb0" stroke-width="2" opacity=".12"/><path d="M396 254l21 -3" stroke="#e2cbb0" stroke-width="4" opacity=".12"/><path d="M38 728l20 5" stroke="#e2cbb0" stroke-width="1" opacity=".12"/><path d="M205 714l10 -3" stroke="#c6b6bd" stroke-width="2" opacity=".12"/><path d="M229 60l45 -1" stroke="#e2cbb0" stroke-width="4" opacity=".12"/><path d="M53 50l16 4" stroke="#e2cbb0" stroke-width="4" opacity=".12"/><path d="M272 369l11 3" stroke="#c49d95" stroke-width="4" opacity=".12"/><path d="M373 34l9 0" stroke="#c6b6bd" stroke-width="1" opacity=".12"/><path d="M584 36l19 -6" stroke="#c6b6bd" stroke-width="2" opacity=".12"/><path d="M76 104l47 4" stroke="#c49d95" stroke-width="4" opacity=".12"/><path d="M430 357l11 0" stroke="#c6b6bd" stroke-width="1" opacity=".12"/><path d="M568 513l38 6" stroke="#c6b6bd" stroke-width="4" opacity=".12"/><path d="M11 522l21 -6" stroke="#e2cbb0" stroke-width="3" opacity=".12"/><path d="M215 669l47 -1" stroke="#e2cbb0" stroke-width="3" opacity=".12"/><path d="M567 365l44 -7" stroke="#c49d95" stroke-width="2" opacity=".12"/><path d="M264 534l37 5" stroke="#c6b6bd" stroke-width="3" opacity=".12"/><path d="M190 643l13 -4" stroke="#c49d95" stroke-width="3" opacity=".12"/><path d="M373 305l27 6" stroke="#c6b6bd" stroke-width="4" opacity=".12"/><path d="M479 34l21 0" stroke="#c49d95" stroke-width="1" opacity=".12"/><path d="M88 753l39 -3" stroke="#c6b6bd" stroke-width="4" opacity=".12"/><path d="M352 272l25 0" stroke="#e2cbb0" stroke-width="2" opacity=".12"/><path d="M334 469l20 3" stroke="#c49d95" stroke-width="3" opacity=".12"/><path d="M178 356l10 -5" stroke="#c6b6bd" stroke-width="4" opacity=".12"/><path d="M237 542l42 3" stroke="#e2cbb0" stroke-width="2" opacity=".12"/><path d="M132 171l20 0" stroke="#c6b6bd" stroke-width="4" opacity=".12"/><path d="M338 316l30 6" stroke="#c6b6bd" stroke-width="3" opacity=".12"/><path d="M76 603l23 1" stroke="#c6b6bd" stroke-width="3" opacity=".12"/><path d="M218 596l41 1" stroke="#e2cbb0" stroke-width="1" opacity=".12"/><path d="M466 632l36 4" stroke="#c6b6bd" stroke-width="2" opacity=".12"/><path d="M287 728l23 1" stroke="#e2cbb0" stroke-width="2" opacity=".12"/><path d="M333 320l49 4" stroke="#e2cbb0" stroke-width="3" opacity=".12"/><path d="M60 138l40 5" stroke="#c49d95" stroke-width="1" opacity=".12"/><path d="M396 463l27 3" stroke="#c49d95" stroke-width="4" opacity=".12"/><path d="M509 421l33 -6" stroke="#c6b6bd" stroke-width="2" opacity=".12"/><path d="M570 291l43 1" stroke="#e2cbb0" stroke-width="2" opacity=".12"/><path d="M239 462l31 0" stroke="#c49d95" stroke-width="3" opacity=".12"/><path d="M24 100l9 0" stroke="#e2cbb0" stroke-width="3" opacity=".12"/><path d="M467 754l25 1" stroke="#e2cbb0" stroke-width="3" opacity=".12"/><path d="M182 725l28 6" stroke="#c49d95" stroke-width="1" opacity=".12"/><path d="M564 660l48 4" stroke="#c6b6bd" stroke-width="3" opacity=".12"/><path d="M42 250l40 3" stroke="#c6b6bd" stroke-width="2" opacity=".12"/><path d="M574 258l35 0" stroke="#c6b6bd" stroke-width="1" opacity=".12"/><path d="M19 527l35 3" stroke="#e2cbb0" stroke-width="1" opacity=".12"/><path d="M322 383l28 3" stroke="#e2cbb0" stroke-width="1" opacity=".12"/><path d="M536 699l38 5" stroke="#c6b6bd" stroke-width="1" opacity=".12"/><path d="M4 85l25 -3" stroke="#c49d95" stroke-width="2" opacity=".12"/><path d="M590 247l44 1" stroke="#e2cbb0" stroke-width="3" opacity=".12"/><path d="M357 319l47 -3" stroke="#c6b6bd" stroke-width="2" opacity=".12"/><path d="M284 300l45 -2" stroke="#c49d95" stroke-width="4" opacity=".12"/><path d="M231 448l29 5" stroke="#c49d95" stroke-width="4" opacity=".12"/><path d="M255 468l27 1" stroke="#c49d95" stroke-width="4" opacity=".12"/><path d="M133 245l9 1" stroke="#c49d95" stroke-width="1" opacity=".12"/><path d="M285 661l18 3" stroke="#c49d95" stroke-width="2" opacity=".12"/><path d="M325 391l20 -6" stroke="#c49d95" stroke-width="4" opacity=".12"/><path d="M426 440l16 0" stroke="#c49d95" stroke-width="2" opacity=".12"/><path d="M53 525l38 3" stroke="#c49d95" stroke-width="3" opacity=".12"/><path d="M185 683l38 -5" stroke="#e2cbb0" stroke-width="2" opacity=".12"/><path d="M306 757l34 0" stroke="#c6b6bd" stroke-width="4" opacity=".12"/><path d="M44 120l31 -4" stroke="#e2cbb0" stroke-width="4" opacity=".12"/><path d="M387 391l36 0" stroke="#c49d95" stroke-width="4" opacity=".12"/><path d="M67 348l20 -5" stroke="#e2cbb0" stroke-width="1" opacity=".12"/><path d="M393 657l10 -6" stroke="#c49d95" stroke-width="4" opacity=".12"/><path d="M268 123l45 -1" stroke="#c6b6bd" stroke-width="2" opacity=".12"/><path d="M566 704l20 3" stroke="#c6b6bd" stroke-width="4" opacity=".12"/><path d="M227 491l37 -5" stroke="#c49d95" stroke-width="3" opacity=".12"/><path d="M24 637l26 1" stroke="#e2cbb0" stroke-width="2" opacity=".12"/><path d="M554 112l40 4" stroke="#c6b6bd" stroke-width="4" opacity=".12"/><path d="M62 714l18 5" stroke="#e2cbb0" stroke-width="1" opacity=".12"/><path d="M362 356l46 -2" stroke="#c6b6bd" stroke-width="4" opacity=".12"/><path d="M240 744l11 -2" stroke="#e2cbb0" stroke-width="2" opacity=".12"/><path d="M478 196l37 1" stroke="#c6b6bd" stroke-width="2" opacity=".12"/><path d="M293 163l43 2" stroke="#c6b6bd" stroke-width="3" opacity=".12"/><path d="M444 738l24 -6" stroke="#e2cbb0" stroke-width="2" opacity=".12"/><path d="M19 471l48 -3" stroke="#e2cbb0" stroke-width="4" opacity=".12"/><path d="M258 709l16 2" stroke="#e2cbb0" stroke-width="2" opacity=".12"/><path d="M521 204l40 -1" stroke="#c6b6bd" stroke-width="2" opacity=".12"/><path d="M433 505l31 2" stroke="#c49d95" stroke-width="1" opacity=".12"/><path d="M173 602l43 -5" stroke="#e2cbb0" stroke-width="1" opacity=".12"/><path d="M204 373l36 -3" stroke="#e2cbb0" stroke-width="3" opacity=".12"/><path d="M234 249l28 -6" stroke="#e2cbb0" stroke-width="4" opacity=".12"/><path d="M242 558l34 0" stroke="#c6b6bd" stroke-width="3" opacity=".12"/><path d="M328 92l18 2" stroke="#c49d95" stroke-width="1" opacity=".12"/><path d="M15 216l8 6" stroke="#c49d95" stroke-width="3" opacity=".12"/><path d="M545 282l23 -5" stroke="#e2cbb0" stroke-width="4" opacity=".12"/><path d="M477 580l36 6" stroke="#c49d95" stroke-width="3" opacity=".12"/><path d="M1 492l20 6" stroke="#c6b6bd" stroke-width="3" opacity=".12"/><path d="M412 316l9 0" stroke="#c6b6bd" stroke-width="4" opacity=".12"/><path d="M95 342l11 -2" stroke="#e2cbb0" stroke-width="3" opacity=".12"/><path d="M442 636l24 -2" stroke="#e2cbb0" stroke-width="4" opacity=".12"/><path d="M373 264l20 -1" stroke="#c49d95" stroke-width="3" opacity=".12"/><path d="M294 642l43 -1" stroke="#e2cbb0" stroke-width="4" opacity=".12"/><path d="M231 306l31 -2" stroke="#c6b6bd" stroke-width="1" opacity=".12"/><path d="M366 341l35 -4" stroke="#e2cbb0" stroke-width="2" opacity=".12"/><path d="M533 394l39 -5" stroke="#c49d95" stroke-width="4" opacity=".12"/><path d="M323 744l47 -2" stroke="#c49d95" stroke-width="1" opacity=".12"/><path d="M359 683l17 1" stroke="#e2cbb0" stroke-width="2" opacity=".12"/><path d="M210 544l33 -6" stroke="#c6b6bd" stroke-width="2" opacity=".12"/><path d="M66 599l44 -4" stroke="#c49d95" stroke-width="2" opacity=".12"/><path d="M289 608l35 1" stroke="#c49d95" stroke-width="2" opacity=".12"/><path d="M329 7l32 -3" stroke="#c6b6bd" stroke-width="2" opacity=".12"/><path d="M298 161l48 0" stroke="#e2cbb0" stroke-width="1" opacity=".12"/><path d="M271 305l20 -1" stroke="#e2cbb0" stroke-width="1" opacity=".12"/><path d="M242 457l28 -3" stroke="#c6b6bd" stroke-width="4" opacity=".12"/><path d="M308 40l35 -2" stroke="#c6b6bd" stroke-width="2" opacity=".12"/><path d="M290 613l11 3" stroke="#c49d95" stroke-width="4" opacity=".12"/><path d="M215 16l19 4" stroke="#e2cbb0" stroke-width="3" opacity=".12"/><path d="M581 498l30 -2" stroke="#c6b6bd" stroke-width="3" opacity=".12"/><path d="M319 131l19 0" stroke="#e2cbb0" stroke-width="1" opacity=".12"/><path d="M60 443l8 -6" stroke="#c49d95" stroke-width="1" opacity=".12"/></svg>